<svg width="42" height="39" viewBox="0 0 42 39" fill="none" xmlns="http://www.w3.org/2000/svg">
<path d="M40.1659 0.799246C38.2706 -0.245573 36.1567 1.76943 34.9175 2.96351C32.0747 5.79945 29.6692 9.08317 26.972 12.0684C23.9834 15.3521 21.2134 18.6358 18.1518 21.845C16.4023 23.6361 14.5071 25.5765 13.3408 27.8154C10.7166 25.2032 8.45686 22.3673 5.54109 20.0539C3.42715 18.412 -0.0717733 17.2179 0.00112105 21.1733C0.14691 26.3229 4.59346 31.8455 7.87371 35.353C9.2587 36.8456 11.0811 38.4128 13.195 38.4875C15.7463 38.6367 18.3705 35.5023 19.9013 33.7858C22.5985 30.8006 24.7853 27.4421 27.2636 24.3824C30.471 20.3524 33.7512 16.3969 36.8857 12.2923C38.8538 9.75483 45.0498 3.4858 40.1659 0.799246ZM3.20835 20.8748C3.13546 20.8748 3.06256 20.8748 2.91678 20.9493C2.6252 20.8748 2.40652 20.8001 2.11494 20.6508C2.33362 20.5015 2.69809 20.5762 3.20835 20.8748Z" fill="#DBFAC4"/>
</svg>
